<svg width="22" height="22" viewBox="0 0 22 22" fill="none" xmlns="http://www.w3.org/2000/svg">
<path d="M18.25 2.75C18.9141 2.75 19.5 3.33594 19.5 4.03906V19C19.5 19.7031 18.9141 20.25 18.25 20.25H3.21094C2.54688 20.25 2 19.7031 2 19V4.03906C2 3.33594 2.54688 2.75 3.21094 2.75H18.25ZM7.27344 17.75V9.42969H4.69531V17.75H7.27344ZM5.98438 8.25781C6.80469 8.25781 7.46875 7.59375 7.46875 6.77344C7.46875 5.95312 6.80469 5.25 5.98438 5.25C5.125 5.25 4.46094 5.95312 4.46094 6.77344C4.46094 7.59375 5.125 8.25781 5.98438 8.25781ZM17 17.75V13.1797C17 10.9531 16.4922 9.19531 13.875 9.19531C12.625 9.19531 11.7656 9.89844 11.4141 10.5625H11.375V9.42969H8.91406V17.75H11.4922V13.6484C11.4922 12.5547 11.6875 11.5 13.0547 11.5C14.3828 11.5 14.3828 12.75 14.3828 13.6875V17.75H17Z" fill="white"/>
</svg>
