<svg width="43" height="43" viewBox="0 0 43 43" fill="none" xmlns="http://www.w3.org/2000/svg">
<rect width="43" height="43" rx="21.5" fill="#00D8FF"/>
<path d="M30.8438 16.9271C30.5352 16.8204 30.2239 16.7216 29.9103 16.6307C29.963 16.4138 30.0115 16.1995 30.0545 15.989C30.7612 12.5324 30.2992 9.74766 28.7213 8.83079C27.2085 7.95182 24.7343 8.86835 22.2355 11.0597C21.9893 11.2761 21.7485 11.4987 21.5134 11.7273C21.356 11.5753 21.1958 11.4262 21.0329 11.2801C18.4141 8.93707 15.7892 7.94954 14.213 8.86903C12.7014 9.75074 12.2539 12.3686 12.8901 15.6445C12.9534 15.969 13.0248 16.2917 13.1044 16.6125C12.7328 16.7189 12.3743 16.8321 12.0312 16.9527C8.96078 18.0314 7 19.7219 7 21.4754C7 23.2864 9.10499 25.1029 12.3029 26.2044C12.5622 26.2933 12.8236 26.3757 13.0869 26.4515C13.0014 26.797 12.9255 27.1448 12.8592 27.4946C12.2527 30.7137 12.7264 33.2697 14.2338 34.1458C15.7907 35.0506 18.4039 34.1207 20.9483 31.8793C21.1546 31.6971 21.3564 31.5097 21.5535 31.3173C21.8081 31.5649 22.0695 31.8052 22.3374 32.0381C24.8021 34.1752 27.2363 35.0382 28.7423 34.1597C30.2978 33.2523 30.8033 30.5065 30.147 27.1659C30.0953 26.9041 30.0373 26.6437 29.9731 26.3848C30.1566 26.33 30.3367 26.2736 30.5123 26.215C33.8369 25.1051 36 23.3106 36 21.4754C36 19.7155 33.9759 18.0136 30.8438 16.9271V16.9271ZM30.1227 25.0301C29.9641 25.0829 29.8015 25.134 29.6356 25.1836C29.2686 24.0128 28.7733 22.7678 28.1672 21.4814C28.7456 20.2258 29.2218 18.9967 29.5785 17.8335C29.8752 17.92 30.1631 18.0112 30.4406 18.1075C33.1242 19.0385 34.7612 20.4148 34.7612 21.4754C34.7612 22.605 32.9933 24.0715 30.1227 25.0301V25.0301ZM28.9317 27.4083C29.2219 28.8854 29.2633 30.221 29.071 31.2652C28.8984 32.2034 28.5511 32.8288 28.1215 33.0794C27.2077 33.6125 25.2532 32.9196 23.1454 31.0918C22.8962 30.8753 22.6531 30.6518 22.4162 30.4217C23.2334 29.5212 24.0501 28.4743 24.8471 27.3115C26.2491 27.1862 27.5736 26.9812 28.7747 26.7014C28.8338 26.9419 28.8864 27.1777 28.9317 27.4083V27.4083ZM16.8867 32.9873C15.9939 33.3049 15.2827 33.3141 14.8528 33.0643C13.938 32.5327 13.5577 30.4804 14.0765 27.7275C14.1381 27.4022 14.2087 27.0787 14.2882 26.7573C15.476 27.0221 16.7909 27.2125 18.1962 27.3274C18.9986 28.4651 19.8388 29.5109 20.6856 30.4266C20.5057 30.6021 20.3215 30.773 20.1331 30.9394C19.0079 31.9304 17.8804 32.6336 16.8867 32.9873V32.9873ZM12.7037 25.0231C11.2896 24.536 10.1218 23.9031 9.32136 23.2123C8.60202 22.5917 8.23896 21.9754 8.23896 21.4754C8.23896 20.4113 9.81323 19.054 12.439 18.1315C12.7576 18.0197 13.0911 17.9141 13.4372 17.815C13.8002 19.0045 14.2762 20.2481 14.8506 21.5058C14.2687 22.782 13.7859 24.0455 13.4194 25.249C13.1791 25.1796 12.9404 25.1043 12.7037 25.0231V25.0231ZM14.1059 15.4047C13.5609 12.598 13.9228 10.4809 14.8337 9.94948C15.8039 9.38352 17.9492 10.1905 20.2104 12.2137C20.3579 12.3459 20.5029 12.4808 20.6455 12.6183C19.8029 13.5301 18.9704 14.5681 18.1751 15.6991C16.8112 15.8265 15.5056 16.031 14.3053 16.3051C14.2313 16.0067 14.1648 15.7065 14.1059 15.4048V15.4047ZM26.6152 18.5174C26.3317 18.0239 26.0377 17.5366 25.7333 17.0559C26.6586 17.1738 27.5451 17.3303 28.3776 17.5216C28.1277 18.3289 27.8162 19.1728 27.4495 20.0381C27.1815 19.5256 26.9033 19.0186 26.6152 18.5174V18.5174ZM21.5139 13.5106C22.0853 14.1344 22.6576 14.8308 23.2205 15.5865C22.0786 15.5322 20.9349 15.532 19.793 15.5858C20.3564 14.8371 20.9336 14.1416 21.5139 13.5106ZM16.3799 18.5259C16.0954 19.0232 15.8224 19.527 15.5612 20.0371C15.2005 19.1749 14.8919 18.3271 14.6398 17.5084C15.4672 17.3219 16.3496 17.1694 17.2689 17.0536C16.9612 17.5373 16.6648 18.0281 16.3799 18.5258V18.5259ZM17.2953 25.986C16.3455 25.8791 15.4499 25.7345 14.6227 25.553C14.8787 24.7197 15.1942 23.8539 15.5627 22.9732C15.8249 23.4836 16.099 23.9878 16.3848 24.4852C16.6786 24.9966 16.9829 25.4975 17.2953 25.986ZM21.5481 29.5281C20.9609 28.8898 20.3752 28.1835 19.8033 27.424C20.3586 27.4459 20.9246 27.4571 21.5 27.4571C22.0911 27.4571 22.6754 27.4437 23.2505 27.4179C22.6858 28.1912 22.1157 28.8985 21.5481 29.5281ZM27.4612 22.9282C27.8488 23.8186 28.1756 24.6799 28.435 25.4989C27.5942 25.6923 26.6864 25.848 25.7298 25.9636C26.0363 25.474 26.3331 24.9782 26.6201 24.4767C26.9118 23.9669 27.1923 23.4506 27.4612 22.9282V22.9282ZM25.547 23.8529C25.1077 24.6219 24.6437 25.3763 24.1558 26.1149C23.2719 26.1779 22.3861 26.2093 21.5 26.2088C20.5975 26.2088 19.7197 26.1805 18.8744 26.1253C18.3737 25.3884 17.9009 24.6327 17.4569 23.8598H17.457C17.0151 23.091 16.6023 22.3056 16.2196 21.5052C16.6014 20.7046 17.0129 19.9188 17.4533 19.1494L17.4531 19.1495C17.8934 18.38 18.3624 17.6275 18.8593 16.8938C19.7217 16.828 20.6061 16.7938 21.4999 16.7938H21.5C22.3979 16.7938 23.2834 16.8284 24.1456 16.8946C24.6374 17.6272 25.1035 18.3771 25.5429 19.1428C25.9847 19.9105 26.4017 20.6925 26.7931 21.4875C26.4057 22.2906 25.9901 23.0796 25.547 23.8529V23.8529ZM28.1026 9.91227C29.0736 10.4766 29.4513 12.7525 28.8412 15.737C28.8022 15.9274 28.7585 16.1213 28.7109 16.318C27.5076 16.0381 26.2012 15.83 24.8333 15.7007C24.0365 14.5572 23.2108 13.5176 22.3819 12.6177C22.5991 12.4067 22.8215 12.2011 23.0489 12.0012C25.1899 10.1238 27.1909 9.38249 28.1026 9.91227V9.91227ZM21.5 18.8659C22.9302 18.8659 24.0896 20.0342 24.0896 21.4754C24.0896 22.9166 22.9302 24.0849 21.5 24.0849C20.0698 24.0849 18.9104 22.9166 18.9104 21.4754C18.9104 20.0342 20.0698 18.8659 21.5 18.8659V18.8659Z" fill="white"/>
</svg>
