<svg width="98" height="24" viewBox="0 0 98 24" fill="none" xmlns="http://www.w3.org/2000/svg">
<path opacity="0.9" d="M6.53112 5.4793C6.85925 4.82305 7.78893 4.8504 8.08972 5.4793L9.8944 9.11602L13.8866 9.69024C14.5975 9.79961 14.871 10.6746 14.3514 11.1941L11.4803 14.0106L12.1639 17.9754C12.2733 18.6863 11.5077 19.2332 10.8788 18.9051L7.32409 17.0184L3.74206 18.9051C3.11315 19.2332 2.34753 18.6863 2.4569 17.9754L3.1405 14.0106L0.269404 11.1941C-0.250127 10.6746 0.0233106 9.79961 0.734248 9.69024L4.75378 9.11602L6.53112 5.4793Z" fill="#FF9A60"/>
<path opacity="0.9" d="M27.152 5.4793C27.4801 4.82305 28.4098 4.8504 28.7106 5.4793L30.5153 9.11602L34.5074 9.69024C35.2184 9.79961 35.4918 10.6746 34.9723 11.1941L32.1012 14.0106L32.7848 17.9754C32.8942 18.6863 32.1285 19.2332 31.4996 18.9051L27.9449 17.0184L24.3629 18.9051C23.734 19.2332 22.9684 18.6863 23.0778 17.9754L23.7613 14.0106L20.8903 11.1941C20.3707 10.6746 20.6442 9.79961 21.3551 9.69024L25.3746 9.11602L27.152 5.4793Z" fill="#FF9A60"/>
<path opacity="0.9" d="M47.7728 5.4793C48.1009 4.82305 49.0306 4.8504 49.3314 5.4793L51.1361 9.11602L55.1283 9.69024C55.8392 9.79961 56.1127 10.6746 55.5931 11.1941L52.722 14.0106L53.4056 17.9754C53.515 18.6863 52.7494 19.2332 52.1205 18.9051L48.5658 17.0184L44.9838 18.9051C44.3549 19.2332 43.5892 18.6863 43.6986 17.9754L44.3822 14.0106L41.5111 11.1941C40.9916 10.6746 41.265 9.79961 41.9759 9.69024L45.9955 9.11602L47.7728 5.4793Z" fill="#FF9A60"/>
<path opacity="0.9" d="M68.3937 5.4793C68.7218 4.82305 69.6515 4.8504 69.9523 5.4793L71.757 9.11602L75.7491 9.69024C76.4601 9.79961 76.7335 10.6746 76.214 11.1941L73.3429 14.0106L74.0265 17.9754C74.1359 18.6863 73.3702 19.2332 72.7413 18.9051L69.1866 17.0184L65.6046 18.9051C64.9757 19.2332 64.2101 18.6863 64.3195 17.9754L65.003 14.0106L62.132 11.1941C61.6124 10.6746 61.8859 9.79961 62.5968 9.69024L66.6163 9.11602L68.3937 5.4793Z" fill="#FF9A60"/>
<path opacity="0.9" d="M89.0145 5.4793C89.3426 4.82305 90.2723 4.8504 90.5731 5.4793L92.3778 9.11602L96.37 9.69024C97.0809 9.79961 97.3544 10.6746 96.8348 11.1941L93.9637 14.0106L94.6473 17.9754C94.7567 18.6863 93.9911 19.2332 93.3622 18.9051L89.8075 17.0184L86.2255 18.9051C85.5966 19.2332 84.8309 18.6863 84.9403 17.9754L85.6239 14.0106L82.7528 11.1941C82.2333 10.6746 82.5067 9.79961 83.2176 9.69024L87.2372 9.11602L89.0145 5.4793Z" fill="#FF9A60"/>
</svg>
