<svg width="73" height="72" viewBox="0 0 73 72" fill="none" xmlns="http://www.w3.org/2000/svg">
<rect x="0.504395" width="72" height="72" rx="36" fill="#007ACC"/>
<rect x="19.5044" y="19" width="34" height="34" rx="3.4" fill="white"/>
<path d="M31.4119 38.8053L31.4043 39.7878H32.9655H34.5268V44.224V48.6603H35.6311H36.7354V44.224V39.7878H38.2967H39.8579V38.8244C39.8579 38.2913 39.8465 37.8457 39.8313 37.8343C39.8198 37.8191 37.9197 37.8115 35.6159 37.8153L31.4233 37.8267L31.4119 38.8053Z" fill="#007ACC"/>
<path d="M45.4645 37.7987C46.0738 37.9511 46.5383 38.2214 46.9648 38.6632C47.1857 38.8992 47.5132 39.3295 47.5398 39.4324C47.5474 39.4628 46.5041 40.1635 45.8719 40.5557C45.8491 40.5709 45.7577 40.4719 45.6549 40.3196C45.3464 39.8703 45.0228 39.6761 44.5277 39.6418C43.8004 39.5923 43.332 39.9731 43.3359 40.609C43.3359 40.7956 43.3625 40.906 43.4387 41.0583C43.5986 41.3896 43.8956 41.5877 44.8286 41.9913C46.5459 42.73 47.2809 43.2174 47.7378 43.9105C48.2481 44.6835 48.3623 45.9173 48.0158 46.835C47.635 47.8327 46.6906 48.5105 45.3617 48.7352C44.9504 48.8075 43.9756 48.7961 43.5339 48.7161C42.5705 48.5448 41.6565 48.0688 41.093 47.4443C40.8721 47.2006 40.4418 46.5646 40.4685 46.5189C40.4799 46.5037 40.5789 46.4428 40.6893 46.378C40.796 46.3171 41.1996 46.0848 41.5804 45.864L42.2696 45.4641L42.4143 45.6774C42.6161 45.9858 43.0579 46.4085 43.3244 46.5494C44.0898 46.953 45.1408 46.8959 45.6587 46.4314C45.8796 46.2295 45.9709 46.0201 45.9709 45.7117C45.9709 45.4337 45.9367 45.3118 45.792 45.1024C45.6054 44.8358 45.2246 44.6112 44.1431 44.1428C42.9056 43.6097 42.3724 43.2784 41.885 42.7529C41.6032 42.4482 41.3367 41.9608 41.2262 41.5534C41.1349 41.2145 41.112 40.3653 41.1844 40.0226C41.4395 38.8269 42.342 37.993 43.6443 37.7454C44.067 37.6655 45.0494 37.6959 45.4645 37.7987Z" fill="#007ACC"/>
</svg>
